<svg width="32" height="30" viewBox="0 0 32 30" fill="none" xmlns="http://www.w3.org/2000/svg">
    <path
        d="M3.07812 5.07935H8.66543H3.07812ZM28.221 5.07935H14.2527H28.221ZM3.07812 14.8571H19.84H3.07812ZM28.221 14.8571H25.4274H28.221ZM3.07812 24.6349H5.87178H3.07812ZM28.221 24.6349H11.4591H28.221Z"
        fill="#C4C4C4" />
    <path
        d="M28.221 24.6349H11.4591M3.07812 5.07935H8.66543H3.07812ZM28.221 5.07935H14.2527H28.221ZM3.07812 14.8571H19.84H3.07812ZM28.221 14.8571H25.4274H28.221ZM3.07812 24.6349H5.87178H3.07812Z"
        stroke="black" stroke-opacity="0.7" stroke-width="2" stroke-linecap="round" />
    <path
        d="M11.4592 7.8732C13.0021 7.8732 14.2528 6.62244 14.2528 5.07954C14.2528 3.53665 13.0021 2.28589 11.4592 2.28589C9.91629 2.28589 8.66553 3.53665 8.66553 5.07954C8.66553 6.62244 9.91629 7.8732 11.4592 7.8732Z"
        fill="#C4C4C4" stroke="black" stroke-opacity="0.7" stroke-width="2"
        stroke-linecap="round" />
    <path
        d="M22.6336 17.6508C24.1765 17.6508 25.4273 16.4 25.4273 14.8571C25.4273 13.3142 24.1765 12.0635 22.6336 12.0635C21.0907 12.0635 19.84 13.3142 19.84 14.8571C19.84 16.4 21.0907 17.6508 22.6336 17.6508Z"
        fill="#C4C4C4" stroke="black" stroke-opacity="0.7" stroke-width="2"
        stroke-linecap="round" />
    <path
        d="M8.66536 27.4284C10.2083 27.4284 11.459 26.1776 11.459 24.6347C11.459 23.0918 10.2083 21.8411 8.66536 21.8411C7.12247 21.8411 5.8717 23.0918 5.8717 24.6347C5.8717 26.1776 7.12247 27.4284 8.66536 27.4284Z"
        fill="#C4C4C4" stroke="black" stroke-opacity="0.7" stroke-width="2"
        stroke-linecap="round" />
</svg>
