<svg width="22" height="22" viewBox="0 0 22 22" fill="none" xmlns="http://www.w3.org/2000/svg">
    <path
        d="M19.5312 0H2.34375C1.0498 0 0 1.0498 0 2.34375V19.5312C0 20.8252 1.0498 21.875 2.34375 21.875H19.5312C20.8252 21.875 21.875 20.8252 21.875 19.5312V2.34375C21.875 1.0498 20.8252 0 19.5312 0ZM17.9688 12.3047C17.9688 12.627 17.7051 12.8906 17.3828 12.8906H12.8906V17.3828C12.8906 17.7051 12.627 17.9688 12.3047 17.9688H9.57031C9.24805 17.9688 8.98438 17.7051 8.98438 17.3828V12.8906H4.49219C4.16992 12.8906 3.90625 12.627 3.90625 12.3047V9.57031C3.90625 9.24805 4.16992 8.98438 4.49219 8.98438H8.98438V4.49219C8.98438 4.16992 9.24805 3.90625 9.57031 3.90625H12.3047C12.627 3.90625 12.8906 4.16992 12.8906 4.49219V8.98438H17.3828C17.7051 8.98438 17.9688 9.24805 17.9688 9.57031V12.3047Z"
        fill="black" />
</svg>
