<svg width="8" height="13" viewBox="0 0 8 13" fill="none" xmlns="http://www.w3.org/2000/svg">
<path d="M3.96731 0.143999C5.10865 0.143999 6.02065 0.442666 6.70331 1.04C7.39665 1.63733 7.74331 2.48 7.74331 3.568C7.74331 4.57067 7.41265 5.35467 6.75131 5.92C6.10065 6.47467 5.23665 6.75733 4.15931 6.768L4.07931 7.968H1.67931L1.59931 4.992H2.55931C3.38065 4.992 4.00465 4.89067 4.43131 4.688C4.86865 4.48533 5.08731 4.11733 5.08731 3.584C5.08731 3.21067 4.98598 2.91733 4.78331 2.704C4.58065 2.49067 4.29798 2.384 3.93531 2.384C3.55131 2.384 3.25265 2.496 3.03931 2.72C2.82598 2.93333 2.71931 3.22667 2.71931 3.6H0.143313C0.121979 2.94933 0.255313 2.36267 0.543313 1.84C0.841979 1.31733 1.27931 0.906666 1.85531 0.608C2.44198 0.298666 3.14598 0.143999 3.96731 0.143999ZM2.91131 12.128C2.43131 12.128 2.03665 11.9893 1.72731 11.712C1.42865 11.424 1.27931 11.072 1.27931 10.656C1.27931 10.2293 1.42865 9.872 1.72731 9.584C2.03665 9.296 2.43131 9.152 2.91131 9.152C3.38065 9.152 3.76465 9.296 4.06331 9.584C4.37265 9.872 4.52731 10.2293 4.52731 10.656C4.52731 11.072 4.37265 11.424 4.06331 11.712C3.76465 11.9893 3.38065 12.128 2.91131 12.128Z" fill="black"/>
</svg>
