<svg width="21" height="20" viewBox="0 0 21 20" fill="none" xmlns="http://www.w3.org/2000/svg">
    <path fill-rule="evenodd" clip-rule="evenodd"
        d="M6.17009 0H14.8401C18.2301 0 20.5001 2.38 20.5001 5.92V14.091C20.5001 17.62 18.2301 20 14.8401 20H6.17009C2.78009 20 0.500092 17.62 0.500092 14.091V5.92C0.500092 2.38 2.78009 0 6.17009 0ZM9.93009 12.99L14.6801 8.24C15.0201 7.9 15.0201 7.35 14.6801 7C14.3401 6.66 13.7801 6.66 13.4401 7L9.31009 11.13L7.56009 9.38C7.22009 9.04 6.66009 9.04 6.32009 9.38C5.98009 9.72 5.98009 10.27 6.32009 10.62L8.70009 12.99C8.87009 13.16 9.09009 13.24 9.31009 13.24C9.54009 13.24 9.76009 13.16 9.93009 12.99Z"
        fill="#0EB800" />
</svg>
