<svg width="16" height="18" viewBox="0 0 16 18" fill="none" xmlns="http://www.w3.org/2000/svg">
    <path
        d="M7.6365 5.07305L9.07506 5.57578C9.12391 5.59093 9.16763 5.62707 9.19941 5.67856C9.23119 5.73006 9.24926 5.79403 9.2508 5.86055C9.2508 6.02227 9.14239 6.15586 9.00905 6.15586H8.06539C7.9637 6.15547 7.86301 6.12921 7.76877 6.07852C7.62988 6.00117 7.46977 6.01875 7.36321 6.14883L6.85957 6.76406C6.83628 6.7911 6.81617 6.82263 6.79993 6.85758C6.77914 6.90281 6.7653 6.95306 6.75922 7.00542C6.75313 7.05778 6.75492 7.11122 6.76448 7.16266C6.77404 7.2141 6.79118 7.26252 6.81492 7.30513C6.83866 7.34774 6.86852 7.3837 6.90278 7.41094C7.18169 7.63294 7.49398 7.77096 7.81755 7.81523V8.4375C7.81755 8.74687 8.0251 9 8.27798 9H8.73841C8.99156 9 9.19911 8.74687 9.19911 8.4375V7.81875C10.072 7.69219 10.7323 6.72891 10.6173 5.60391C10.5338 4.79531 10.0219 4.15195 9.38307 3.92695L7.94452 3.42422C7.89566 3.40907 7.85195 3.37294 7.82016 3.32144C7.78838 3.26994 7.77032 3.20597 7.76877 3.13945C7.76877 2.97773 7.87719 2.84414 8.01052 2.84414H8.95418C9.05623 2.84435 9.1573 2.87061 9.25186 2.92148C9.39049 2.99883 9.55086 2.98125 9.65742 2.85117L10.1611 2.23594C10.1836 2.20947 10.203 2.17866 10.2186 2.14453C10.2396 2.09931 10.2536 2.04903 10.2598 1.99659C10.266 1.94415 10.2644 1.89059 10.2549 1.839C10.2454 1.78742 10.2284 1.73883 10.2047 1.69606C10.1809 1.65328 10.1511 1.61715 10.1168 1.58977C9.83778 1.36777 9.52541 1.22975 9.20176 1.18547V0.5625C9.20176 0.253125 8.99447 0 8.74133 0H8.2809C8.02775 0 7.82046 0.253125 7.82046 0.5625V1.18125C6.94864 1.30781 6.28701 2.27109 6.40205 3.39609C6.48529 4.20469 6.99873 4.84805 7.6365 5.07305ZM15.4352 11.5348C15.1224 11.1586 14.6347 11.1832 14.306 11.5348L11.8567 14.1328C11.5561 14.4527 11.1819 14.6264 10.7964 14.625H7.66142C7.54894 14.625 7.44106 14.5657 7.36152 14.4602C7.28198 14.3548 7.2373 14.2117 7.2373 14.0625C7.2373 13.9133 7.28198 13.7702 7.36152 13.6648C7.44106 13.5593 7.54894 13.5 7.66142 13.5H9.73668C10.1581 13.5 10.5507 13.1168 10.6181 12.5648C10.6264 12.5015 10.6304 12.4372 10.6302 12.3729C10.6298 12.0749 10.5403 11.7893 10.3812 11.5788C10.2222 11.3682 10.0067 11.25 9.78201 11.25H5.54083C4.82556 11.2502 4.13209 11.5766 3.57663 12.1743L2.34404 13.5H0.875534C0.763051 13.5 0.655175 13.5593 0.575637 13.6648C0.4961 13.7702 0.451416 13.9133 0.451416 14.0625L0.451416 17.4375C0.451416 17.5867 0.4961 17.7298 0.575637 17.8352C0.655175 17.9407 0.763051 18 0.875534 18H10.3326C10.7179 18.0004 11.0918 17.8268 11.3929 17.5078L15.4016 13.2539C15.498 13.1516 15.5764 13.0226 15.6314 12.876C15.6863 12.7293 15.7165 12.5685 15.7197 12.4048C15.7229 12.2411 15.6992 12.0784 15.6501 11.9281C15.601 11.7779 15.5278 11.6436 15.4355 11.5348H15.4352Z"
        fill="#3D3270" />
</svg>
